<svg xmlns="http://www.w3.org/2000/svg" xmlns:xlink="http://www.w3.org/1999/xlink" preserveAspectRatio="xMidYMid" width="48" height="48" viewBox="0 0 48 48">
  <path fill="#bbbdbf" fill-rule="evenodd" d="M23.996,0.000 C10.746,0.000 -0.000,10.744 -0.000,23.998 C-0.000,37.251 10.746,48.000 23.996,48.000 C37.253,48.000 48.000,37.251 48.000,23.998 C48.000,10.744 37.253,0.000 23.996,0.000 ZM21.778,21.684 L21.778,12.662 L26.222,12.662 L26.222,21.684 L31.657,21.684 L24.001,29.341 L16.344,21.684 L21.778,21.684 ZM35.000,36.341 L13.001,36.341 L13.001,29.341 L15.001,29.341 L15.001,34.341 L33.000,34.341 L33.000,29.341 L35.000,29.341 L35.000,36.341 Z" class="cls-1"/>
</svg>
